<?xml version="1.0" encoding="UTF-8" standalone="no"?>
<!DOCTYPE svg PUBLIC "-//W3C//DTD SVG 1.1//EN" "http://www.w3.org/Graphics/SVG/1.1/DTD/svg11.dtd">
<svg width="100%" height="100%" viewBox="0 0 300 150" version="1.1" xmlns="http://www.w3.org/2000/svg" xmlns:xlink="http://www.w3.org/1999/xlink" xml:space="preserve" xmlns:serif="http://www.serif.com/" style="fill-rule:evenodd;clip-rule:evenodd;stroke-linecap:round;stroke-linejoin:round;stroke-miterlimit:1.5;">
    <g id="SVG">
        <path id="CityVector" d="M255.544,96.681C255.534,96.727 255.494,96.76 255.446,96.76C254.915,96.761 251.909,96.761 251.321,96.761C251.266,96.761 251.221,96.716 251.221,96.661C251.221,95.012 251.221,73.481 251.221,70.679C251.221,70.513 251.087,70.379 250.921,70.379C250.553,70.379 249.95,70.379 249.713,70.379C249.658,70.379 249.614,70.334 249.614,70.279C249.614,69.423 249.614,63.336 249.614,61.907C249.614,61.827 249.582,61.751 249.526,61.694C249.469,61.638 249.393,61.607 249.313,61.607C249.006,61.607 248.545,61.607 248.344,61.607C248.317,61.607 248.292,61.596 248.273,61.577C248.254,61.559 248.244,61.533 248.244,61.507C248.244,61.2 248.244,60.262 248.244,59.776C248.244,59.696 248.212,59.62 248.156,59.564C248.1,59.507 248.023,59.476 247.944,59.476C247.645,59.476 247.205,59.476 247.009,59.476C246.983,59.476 246.957,59.465 246.939,59.446C246.92,59.428 246.909,59.402 246.909,59.376C246.909,59.082 246.909,58.214 246.909,57.75C246.909,57.671 246.878,57.595 246.821,57.538C246.765,57.482 246.689,57.45 246.609,57.45C246.385,57.45 246.093,57.45 245.942,57.45C245.886,57.45 245.842,57.406 245.842,57.35C245.842,57.147 245.842,56.677 245.842,56.366C245.842,56.2 245.707,56.066 245.542,56.066C245.335,56.066 245.073,56.066 244.933,56.066C244.878,56.066 244.833,56.021 244.833,55.966C244.831,55.747 244.828,55.212 244.826,54.873C244.826,54.708 244.691,54.574 244.526,54.574C244.237,54.574 243.814,54.574 243.623,54.574C243.569,54.574 243.524,54.53 243.523,54.475C243.52,54.165 243.51,53.2 243.505,52.707C243.503,52.542 243.37,52.41 243.205,52.41C242.624,52.41 241.341,52.41 240.757,52.41C240.677,52.41 240.6,52.441 240.544,52.498C240.488,52.554 240.456,52.631 240.457,52.711C240.458,53.204 240.461,54.163 240.462,54.474C240.462,54.501 240.452,54.526 240.433,54.545C240.414,54.564 240.389,54.574 240.362,54.574C240.229,54.574 239.988,54.574 239.793,54.574C239.713,54.574 239.636,54.606 239.58,54.663C239.524,54.72 239.492,54.796 239.493,54.876C239.495,55.215 239.498,55.745 239.499,55.965C239.499,55.992 239.489,56.018 239.47,56.036C239.451,56.055 239.426,56.066 239.399,56.066C239.257,56.066 238.991,56.066 238.783,56.066C238.617,56.066 238.483,56.2 238.483,56.365C238.482,56.677 238.481,57.147 238.48,57.351C238.48,57.406 238.435,57.45 238.38,57.45C238.242,57.45 237.988,57.45 237.786,57.45C237.62,57.45 237.486,57.585 237.486,57.75C237.485,58.214 237.484,59.082 237.484,59.376C237.484,59.431 237.439,59.476 237.384,59.476C237.247,59.476 236.994,59.476 236.793,59.476C236.627,59.476 236.493,59.61 236.493,59.776C236.493,60.262 236.493,61.2 236.493,61.507C236.493,61.533 236.482,61.559 236.464,61.577C236.445,61.596 236.419,61.607 236.393,61.607C236.177,61.607 235.662,61.607 235.33,61.607C235.251,61.607 235.174,61.638 235.118,61.694C235.062,61.751 235.03,61.827 235.03,61.907C235.03,63.336 235.03,69.423 235.03,70.279C235.03,70.305 235.02,70.33 235.001,70.349C234.982,70.368 234.957,70.379 234.93,70.379C234.699,70.379 234.121,70.379 233.764,70.379C233.6,70.379 233.466,70.511 233.464,70.676C233.474,73.183 233.523,90.711 233.465,90.687C233.428,90.671 231.446,91.042 231.133,91.155C230.827,91.265 225.065,92.943 224.718,96.761C224.708,96.87 221.314,96.781 220.688,96.763C220.633,96.763 220.59,96.718 220.59,96.664C220.589,94.634 220.589,61.236 220.589,57.713C220.589,57.634 220.557,57.557 220.501,57.501C220.445,57.445 220.369,57.413 220.289,57.413C219.81,57.413 218.895,57.413 218.592,57.413C218.537,57.413 218.492,57.368 218.492,57.313C218.492,57.035 218.492,56.244 218.492,55.807C218.492,55.641 218.358,55.507 218.192,55.507C217.721,55.507 216.831,55.507 216.533,55.507C216.506,55.507 216.481,55.496 216.462,55.477C216.443,55.459 216.433,55.433 216.433,55.407C216.433,55.085 216.433,54.068 216.433,53.557C216.433,53.477 216.401,53.401 216.345,53.345C216.289,53.289 216.212,53.257 216.133,53.257C215.396,53.257 213.504,53.257 212.767,53.257C212.602,53.257 212.467,53.391 212.467,53.557C212.467,54.1 212.467,55.219 212.467,55.559C212.467,55.614 212.423,55.659 212.367,55.659C212.099,55.659 211.357,55.659 210.937,55.659C210.771,55.659 210.637,55.793 210.637,55.959C210.637,56.149 210.637,56.382 210.637,56.512C210.637,56.539 210.627,56.564 210.608,56.583C210.589,56.602 210.564,56.612 210.537,56.612C210.071,56.612 208.115,56.612 207.649,56.612C207.622,56.612 207.597,56.602 207.578,56.583C207.559,56.564 207.549,56.539 207.549,56.512C207.549,56.2 207.549,55.234 207.549,54.739C207.549,54.659 207.517,54.583 207.461,54.527C207.404,54.471 207.328,54.439 207.249,54.439C206.494,54.439 204.523,54.439 203.769,54.439C203.689,54.439 203.613,54.471 203.557,54.527C203.5,54.583 203.469,54.659 203.469,54.739C203.469,55.202 203.469,56.067 203.469,56.36C203.469,56.415 203.424,56.46 203.369,56.46C202.964,56.46 201.44,56.46 200.787,56.46C200.622,56.46 200.487,56.594 200.487,56.76C200.487,60.328 200.487,94.569 200.487,96.661C200.487,96.687 200.477,96.712 200.458,96.731C200.439,96.75 200.414,96.761 200.387,96.761C198.469,96.761 169.569,96.761 167.65,96.761C167.624,96.761 167.598,96.75 167.58,96.731C167.561,96.712 167.55,96.687 167.55,96.661C167.55,94.273 167.55,49.905 167.55,45.825C167.55,45.746 167.519,45.669 167.462,45.613C167.406,45.557 167.33,45.525 167.25,45.525C166.866,45.525 166.221,45.525 165.975,45.525C165.919,45.525 165.875,45.48 165.875,45.425C165.875,45.113 165.875,44.148 165.875,43.653C165.875,43.574 165.843,43.497 165.787,43.441C165.731,43.385 165.654,43.353 165.575,43.353C164.841,43.353 162.982,43.353 162.53,43.353C162.504,43.353 162.478,43.343 162.46,43.324C162.441,43.305 162.43,43.28 162.43,43.253C162.43,42.857 162.43,41.388 162.43,40.749C162.43,40.669 162.399,40.593 162.342,40.537C162.286,40.48 162.21,40.449 162.13,40.449C160.305,40.449 150.704,40.449 148.878,40.449C148.799,40.449 148.723,40.48 148.666,40.537C148.61,40.593 148.578,40.669 148.578,40.749C148.578,41.565 148.578,43.796 148.578,44.296C148.578,44.351 148.534,44.396 148.478,44.396C148.161,44.396 147.168,44.396 146.664,44.396C146.584,44.396 146.508,44.427 146.451,44.484C146.395,44.54 146.364,44.616 146.364,44.696C146.364,46.864 146.364,60.084 146.364,61.367C146.364,61.422 146.319,61.467 146.264,61.467L141.819,61.467C141.653,61.467 141.519,61.601 141.519,61.767C141.519,65.078 141.519,94.718 141.519,96.661C141.519,96.687 141.509,96.713 141.49,96.731C141.471,96.75 141.446,96.761 141.419,96.761C141.091,96.761 140.05,96.761 139.722,96.761C139.696,96.761 139.67,96.75 139.652,96.731C139.633,96.712 139.622,96.687 139.622,96.661C139.622,94.976 139.622,72.531 139.622,69.667C139.622,69.587 139.591,69.511 139.534,69.454C139.478,69.398 139.402,69.367 139.322,69.367C137.592,69.367 128.929,69.367 127.9,69.367C127.873,69.367 127.848,69.356 127.829,69.337C127.81,69.318 127.8,69.293 127.8,69.267C127.8,68.947 127.8,67.941 127.8,67.432C127.8,67.267 127.665,67.132 127.5,67.132C126.896,67.132 125.539,67.132 124.935,67.132C124.769,67.132 124.635,67.267 124.635,67.432C124.635,67.941 124.635,68.947 124.635,69.267C124.635,69.293 124.624,69.318 124.605,69.337C124.587,69.356 124.561,69.367 124.535,69.367C123.997,69.367 121.441,69.367 120.559,69.367C120.394,69.367 120.259,69.501 120.259,69.667C120.259,70.726 120.259,74.26 120.259,74.9C120.259,74.955 120.215,75 120.159,75C119.364,75 114.079,75 113.284,75C113.229,75 113.184,74.955 113.184,74.9C113.184,73.107 113.184,47.77 113.184,44.718C113.184,44.553 113.05,44.418 112.884,44.418C111.645,44.418 106.955,44.418 106.21,44.418C106.183,44.418 106.158,44.408 106.139,44.389C106.12,44.37 106.11,44.345 106.11,44.318C106.11,43.599 106.11,39.21 106.11,38.016C106.11,37.936 106.078,37.86 106.022,37.804C105.965,37.747 105.889,37.716 105.81,37.716C105.599,37.716 105.317,37.716 105.106,37.716C105.027,37.716 104.95,37.684 104.894,37.628C104.838,37.572 104.806,37.495 104.806,37.416C104.806,37.282 104.806,37.125 104.806,36.992C104.806,36.912 104.775,36.836 104.718,36.78C104.662,36.723 104.586,36.692 104.506,36.692C104.225,36.692 103.805,36.692 103.524,36.692C103.358,36.692 103.224,36.826 103.224,36.992C103.224,38.306 103.224,43.529 103.224,44.318C103.224,44.345 103.213,44.37 103.194,44.389C103.176,44.408 103.15,44.418 103.124,44.418C102.586,44.418 100.031,44.418 99.149,44.418C99.069,44.418 98.993,44.45 98.936,44.506C98.88,44.562 98.849,44.639 98.849,44.718C98.851,47.414 98.866,67.389 98.868,68.976C98.868,69.003 98.857,69.028 98.838,69.047C98.82,69.066 98.794,69.076 98.768,69.076C97.432,69.076 83.15,69.076 81.822,69.076C81.767,69.076 81.722,69.032 81.722,68.978C81.719,68.717 81.711,68.006 81.707,67.599C81.705,67.435 81.571,67.302 81.407,67.302C80.811,67.302 79.475,67.302 78.876,67.302C78.71,67.302 78.576,67.437 78.576,67.602C78.576,68.013 78.576,68.728 78.576,68.99C78.576,69.045 78.531,69.09 78.476,69.09C77.766,69.09 73.486,69.09 72.307,69.09C72.228,69.09 72.152,69.121 72.095,69.178C72.039,69.234 72.007,69.31 72.007,69.39C72.007,70.666 72.007,75.618 72.007,76.384C72.007,76.411 71.997,76.436 71.978,76.455C71.959,76.474 71.934,76.484 71.907,76.484C71.445,76.484 69.513,76.484 69.05,76.484C69.024,76.484 68.998,76.474 68.98,76.455C68.961,76.436 68.95,76.411 68.95,76.384C68.95,76.06 68.95,75.03 68.95,74.515C68.95,74.349 68.816,74.215 68.65,74.215C68.1,74.215 66.934,74.215 66.383,74.215C66.217,74.215 66.083,74.349 66.083,74.515C66.083,75.03 66.083,76.061 66.083,76.385C66.083,76.44 66.038,76.484 65.983,76.485C65.542,76.486 63.752,76.491 63.032,76.493C62.953,76.493 62.876,76.525 62.82,76.582C62.764,76.639 62.733,76.716 62.733,76.796C62.753,79.202 62.88,95.237 62.892,96.66C62.892,96.686 62.881,96.712 62.863,96.731C62.844,96.75 62.818,96.761 62.792,96.761C62.432,96.761 61.217,96.761 60.859,96.761C60.804,96.761 60.759,96.716 60.759,96.661C60.756,95.244 60.726,79.189 60.721,76.789C60.721,76.623 60.587,76.489 60.421,76.489C59.727,76.489 58.062,76.489 58.03,76.489C58.03,76.489 58.03,76.488 58.03,76.488C58.03,76.486 58.03,76.484 58.03,76.484L58.03,74.515C58.03,74.349 57.896,74.215 57.73,74.215C57.179,74.215 56.013,74.215 55.463,74.215C55.297,74.215 55.163,74.349 55.163,74.515C55.163,74.949 55.163,75.75 55.163,76.185C55.163,76.35 55.029,76.485 54.863,76.485C54.282,76.486 53.01,76.488 52.429,76.489C52.263,76.489 52.129,76.623 52.129,76.789C52.129,77.959 52.129,82.189 52.129,82.894C52.129,82.95 52.085,82.994 52.029,82.994C51.777,82.994 51.107,82.994 50.714,82.994C50.548,82.994 50.414,83.129 50.414,83.294C50.414,83.697 50.414,84.391 50.414,84.648C50.414,84.704 50.369,84.748 50.314,84.748C49.91,84.748 48.388,84.748 47.734,84.748C47.655,84.748 47.578,84.78 47.522,84.837C47.465,84.894 47.434,84.97 47.434,85.05C47.437,85.513 47.443,86.375 47.444,86.669C47.445,86.695 47.434,86.721 47.415,86.74C47.397,86.759 47.371,86.769 47.344,86.769C46.896,86.769 45.072,86.769 44.346,86.769C44.266,86.769 44.19,86.801 44.134,86.857C44.077,86.913 44.046,86.99 44.046,87.069C44.046,87.827 44.046,89.788 44.046,90.254C44.046,90.28 44.035,90.306 44.017,90.324C43.998,90.343 43.972,90.354 43.946,90.354C43.675,90.354 42.931,90.354 42.659,90.354C42.633,90.354 42.607,90.343 42.589,90.324C42.57,90.305 42.559,90.28 42.559,90.253C42.564,89.518 42.595,84.975 42.604,83.754C42.604,83.674 42.573,83.597 42.516,83.541C42.46,83.484 42.384,83.452 42.304,83.452C42.133,83.452 41.92,83.452 41.75,83.452C41.586,83.452 41.452,83.585 41.45,83.749C41.449,83.934 41.447,84.159 41.445,84.286C41.445,84.34 41.401,84.385 41.346,84.385C40.923,84.388 39.248,84.4 38.558,84.405C38.393,84.407 38.26,84.541 38.26,84.707C38.263,85.308 38.27,86.656 38.273,87.258C38.273,87.338 38.242,87.414 38.186,87.471C38.13,87.527 38.054,87.559 37.974,87.559C37.434,87.562 36.304,87.566 35.765,87.569C35.6,87.569 35.467,87.704 35.467,87.869C35.467,89.34 35.467,95.78 35.467,96.661C35.467,96.716 35.422,96.761 35.367,96.761C34.937,96.761 33.251,96.761 32.821,96.761C32.795,96.761 32.769,96.75 32.751,96.731C32.732,96.712 32.721,96.687 32.721,96.661C32.721,96.211 32.721,94.366 32.721,93.636C32.721,93.556 32.69,93.48 32.633,93.424C32.577,93.367 32.501,93.336 32.421,93.336C31.812,93.336 30.438,93.336 29.829,93.336C29.749,93.336 29.673,93.367 29.617,93.424C29.56,93.48 29.529,93.556 29.529,93.636C29.529,94.366 29.529,96.211 29.529,96.661C29.529,96.716 29.484,96.761 29.429,96.761C28.959,96.761 26.975,96.761 26.505,96.761C26.45,96.761 26.405,96.716 26.405,96.661C26.405,96.221 26.405,94.447 26.405,93.733C26.405,93.568 26.271,93.433 26.105,93.433C25.534,93.433 24.299,93.433 23.728,93.433C23.562,93.433 23.428,93.568 23.428,93.733C23.428,94.447 23.428,96.221 23.428,96.661C23.428,96.687 23.417,96.713 23.399,96.731C23.38,96.75 23.354,96.761 23.328,96.761C22.782,96.761 20.169,96.761 19.623,96.761C19.597,96.761 19.571,96.75 19.553,96.731C19.534,96.713 19.523,96.687 19.523,96.661C19.523,96.213 19.523,94.387 19.523,93.66C19.523,93.581 19.492,93.504 19.436,93.448C19.379,93.392 19.303,93.36 19.223,93.36C18.64,93.36 17.357,93.36 16.773,93.36C16.693,93.36 16.617,93.392 16.561,93.448C16.505,93.504 16.473,93.581 16.473,93.66C16.473,94.387 16.473,96.213 16.473,96.661C16.473,96.716 16.428,96.761 16.373,96.761C16.063,96.761 15.11,96.761 14.618,96.761C14.539,96.761 14.462,96.792 14.406,96.848C14.35,96.905 14.318,96.981 14.318,97.061C14.318,97.358 14.318,97.812 14.318,98.11C14.318,98.275 14.452,98.409 14.618,98.41C24.355,98.426 268.355,98.846 278.109,98.863C278.188,98.863 278.265,98.832 278.321,98.775C278.377,98.719 278.409,98.643 278.409,98.563C278.409,97.964 278.409,96.68 278.409,96.68L270.719,96.68C270.669,96.679 270.627,96.642 270.621,96.593C270.536,96.021 269.975,92.783 267.962,91.658C266.195,90.672 264.77,90.584 263.381,90.614C261.874,90.646 261.099,90.705 259.452,91.443C256.553,92.743 255.672,96.118 255.544,96.681Z" style="fill:url(#_Linear1);"/>
        <g id="LightSpheres---Individuals-for-Export-Transparency" serif:id="LightSpheres - Individuals for Export Transparency">
            <g id="Light">
                <g transform="matrix(5.528756,0,-0,8.745912,-255.882482,-588.297464)">
                    <ellipse cx="56.298" cy="75.775" rx="1.182" ry="0.775" style="fill:url(#_Radial2);stroke:url(#_Radial3);stroke-width:0.03px;"/>
                </g>
                <g transform="matrix(6.985803,-0.151698,0.23997,11.050807,-356.095003,-754.409703)">
                    <ellipse cx="56.298" cy="75.775" rx="1.182" ry="0.775" style="fill:url(#_Radial4);stroke:url(#_Radial5);stroke-width:0.02px;"/>
                </g>
            </g>
            <g id="Light1" serif:id="Light" transform="matrix(1,0,0,1,13.111639,0)">
                <g transform="matrix(5.528756,0,-0,8.745912,-255.882482,-588.297464)">
                    <ellipse cx="56.298" cy="75.775" rx="1.182" ry="0.775" style="fill:url(#_Radial6);stroke:url(#_Radial7);stroke-width:0.03px;"/>
                </g>
                <g transform="matrix(6.985803,-0.151698,0.23997,11.050807,-356.095003,-754.409703)">
                    <ellipse cx="56.298" cy="75.775" rx="1.182" ry="0.775" style="fill:url(#_Radial8);stroke:url(#_Radial9);stroke-width:0.02px;"/>
                </g>
            </g>
            <g id="Light2" serif:id="Light" transform="matrix(1,0,0,1,48.739004,-38.089643)">
                <g transform="matrix(5.528756,0,-0,8.745912,-255.882482,-588.297464)">
                    <ellipse cx="56.298" cy="75.775" rx="1.182" ry="0.775" style="fill:url(#_Radial10);stroke:url(#_Radial11);stroke-width:0.03px;"/>
                </g>
                <g transform="matrix(6.985803,-0.151698,0.23997,11.050807,-356.095003,-754.409703)">
                    <ellipse cx="56.298" cy="75.775" rx="1.182" ry="0.775" style="fill:url(#_Radial12);stroke:url(#_Radial13);stroke-width:0.02px;"/>
                </g>
            </g>
            <g id="Light3" serif:id="Light" transform="matrix(1,0,0,1,186.436118,-22.611771)">
                <g transform="matrix(5.528756,0,-0,8.745912,-255.882482,-588.297464)">
                    <ellipse cx="56.298" cy="75.775" rx="1.182" ry="0.775" style="fill:url(#_Radial14);stroke:url(#_Radial15);stroke-width:0.03px;"/>
                </g>
                <g transform="matrix(6.985803,-0.151698,0.23997,11.050807,-356.095003,-754.409703)">
                    <ellipse cx="56.298" cy="75.775" rx="1.182" ry="0.775" style="fill:url(#_Radial16);stroke:url(#_Radial17);stroke-width:0.02px;"/>
                </g>
            </g>
            <g id="Light4" serif:id="Light" transform="matrix(1,0,0,1,23.107351,-7.256975)">
                <g transform="matrix(5.528756,0,-0,8.745912,-255.882482,-588.297464)">
                    <ellipse cx="56.298" cy="75.775" rx="1.182" ry="0.775" style="fill:url(#_Radial18);stroke:url(#_Radial19);stroke-width:0.03px;"/>
                </g>
                <g transform="matrix(6.985803,-0.151698,0.23997,11.050807,-356.095003,-754.409703)">
                    <ellipse cx="56.298" cy="75.775" rx="1.182" ry="0.775" style="fill:url(#_Radial20);stroke:url(#_Radial21);stroke-width:0.02px;"/>
                </g>
            </g>
        </g>
    </g>
    <defs>
        <linearGradient id="_Linear1" x1="0" y1="0" x2="1" y2="0" gradientUnits="userSpaceOnUse" gradientTransform="matrix(0,-62.171957,62.171957,0,106.00581,98.863636)"><stop offset="0" style="stop-color:rgb(21,38,66);stop-opacity:1"/><stop offset="1" style="stop-color:rgb(206,143,80);stop-opacity:1"/></linearGradient>
        <radialGradient id="_Radial2" cx="0" cy="0" r="1" gradientUnits="userSpaceOnUse" gradientTransform="matrix(1.182025,0,0,0.747221,56.298008,75.774593)"><stop offset="0" style="stop-color:rgb(129,35,47);stop-opacity:0.53"/><stop offset="0.35" style="stop-color:rgb(129,35,47);stop-opacity:0.07"/><stop offset="1" style="stop-color:rgb(129,35,47);stop-opacity:0"/></radialGradient>
        <radialGradient id="_Radial3" cx="0" cy="0" r="1" gradientUnits="userSpaceOnUse" gradientTransform="matrix(1.182025,0,0,0.747221,56.298008,75.774593)"><stop offset="0" style="stop-color:rgb(129,35,47);stop-opacity:0.53"/><stop offset="0.35" style="stop-color:rgb(129,35,47);stop-opacity:0.07"/><stop offset="1" style="stop-color:rgb(129,35,47);stop-opacity:0"/></radialGradient>
        <radialGradient id="_Radial4" cx="0" cy="0" r="1" gradientUnits="userSpaceOnUse" gradientTransform="matrix(1.182025,0,0,0.747221,56.298008,75.774593)"><stop offset="0" style="stop-color:rgb(129,35,47);stop-opacity:1"/><stop offset="0.04" style="stop-color:rgb(129,35,47);stop-opacity:0.59"/><stop offset="0.1" style="stop-color:rgb(129,35,47);stop-opacity:0.53"/><stop offset="1" style="stop-color:rgb(129,35,47);stop-opacity:0"/></radialGradient>
        <radialGradient id="_Radial5" cx="0" cy="0" r="1" gradientUnits="userSpaceOnUse" gradientTransform="matrix(1.182025,0,0,0.747221,56.298008,75.774593)"><stop offset="0" style="stop-color:rgb(129,35,47);stop-opacity:1"/><stop offset="0.04" style="stop-color:rgb(129,35,47);stop-opacity:0.59"/><stop offset="0.1" style="stop-color:rgb(129,35,47);stop-opacity:0.53"/><stop offset="1" style="stop-color:rgb(129,35,47);stop-opacity:0"/></radialGradient>
        <radialGradient id="_Radial6" cx="0" cy="0" r="1" gradientUnits="userSpaceOnUse" gradientTransform="matrix(1.182025,0,0,0.747221,56.298008,75.774593)"><stop offset="0" style="stop-color:rgb(129,35,47);stop-opacity:0.53"/><stop offset="0.35" style="stop-color:rgb(129,35,47);stop-opacity:0.07"/><stop offset="1" style="stop-color:rgb(129,35,47);stop-opacity:0"/></radialGradient>
        <radialGradient id="_Radial7" cx="0" cy="0" r="1" gradientUnits="userSpaceOnUse" gradientTransform="matrix(1.182025,0,0,0.747221,56.298008,75.774593)"><stop offset="0" style="stop-color:rgb(129,35,47);stop-opacity:0.53"/><stop offset="0.35" style="stop-color:rgb(129,35,47);stop-opacity:0.07"/><stop offset="1" style="stop-color:rgb(129,35,47);stop-opacity:0"/></radialGradient>
        <radialGradient id="_Radial8" cx="0" cy="0" r="1" gradientUnits="userSpaceOnUse" gradientTransform="matrix(1.182025,0,0,0.747221,56.298008,75.774593)"><stop offset="0" style="stop-color:rgb(129,35,47);stop-opacity:1"/><stop offset="0.04" style="stop-color:rgb(129,35,47);stop-opacity:0.59"/><stop offset="0.1" style="stop-color:rgb(129,35,47);stop-opacity:0.53"/><stop offset="1" style="stop-color:rgb(129,35,47);stop-opacity:0"/></radialGradient>
        <radialGradient id="_Radial9" cx="0" cy="0" r="1" gradientUnits="userSpaceOnUse" gradientTransform="matrix(1.182025,0,0,0.747221,56.298008,75.774593)"><stop offset="0" style="stop-color:rgb(129,35,47);stop-opacity:1"/><stop offset="0.04" style="stop-color:rgb(129,35,47);stop-opacity:0.59"/><stop offset="0.1" style="stop-color:rgb(129,35,47);stop-opacity:0.53"/><stop offset="1" style="stop-color:rgb(129,35,47);stop-opacity:0"/></radialGradient>
        <radialGradient id="_Radial10" cx="0" cy="0" r="1" gradientUnits="userSpaceOnUse" gradientTransform="matrix(1.182025,0,0,0.747221,56.298008,75.774593)"><stop offset="0" style="stop-color:rgb(129,35,47);stop-opacity:0.53"/><stop offset="0.35" style="stop-color:rgb(129,35,47);stop-opacity:0.07"/><stop offset="1" style="stop-color:rgb(129,35,47);stop-opacity:0"/></radialGradient>
        <radialGradient id="_Radial11" cx="0" cy="0" r="1" gradientUnits="userSpaceOnUse" gradientTransform="matrix(1.182025,0,0,0.747221,56.298008,75.774593)"><stop offset="0" style="stop-color:rgb(129,35,47);stop-opacity:0.53"/><stop offset="0.35" style="stop-color:rgb(129,35,47);stop-opacity:0.07"/><stop offset="1" style="stop-color:rgb(129,35,47);stop-opacity:0"/></radialGradient>
        <radialGradient id="_Radial12" cx="0" cy="0" r="1" gradientUnits="userSpaceOnUse" gradientTransform="matrix(1.182025,0,0,0.747221,56.298008,75.774593)"><stop offset="0" style="stop-color:rgb(129,35,47);stop-opacity:1"/><stop offset="0.04" style="stop-color:rgb(129,35,47);stop-opacity:0.59"/><stop offset="0.1" style="stop-color:rgb(129,35,47);stop-opacity:0.53"/><stop offset="1" style="stop-color:rgb(129,35,47);stop-opacity:0"/></radialGradient>
        <radialGradient id="_Radial13" cx="0" cy="0" r="1" gradientUnits="userSpaceOnUse" gradientTransform="matrix(1.182025,0,0,0.747221,56.298008,75.774593)"><stop offset="0" style="stop-color:rgb(129,35,47);stop-opacity:1"/><stop offset="0.04" style="stop-color:rgb(129,35,47);stop-opacity:0.59"/><stop offset="0.1" style="stop-color:rgb(129,35,47);stop-opacity:0.53"/><stop offset="1" style="stop-color:rgb(129,35,47);stop-opacity:0"/></radialGradient>
        <radialGradient id="_Radial14" cx="0" cy="0" r="1" gradientUnits="userSpaceOnUse" gradientTransform="matrix(1.182025,0,0,0.747221,56.298008,75.774593)"><stop offset="0" style="stop-color:rgb(129,35,47);stop-opacity:0.53"/><stop offset="0.35" style="stop-color:rgb(129,35,47);stop-opacity:0.07"/><stop offset="1" style="stop-color:rgb(129,35,47);stop-opacity:0"/></radialGradient>
        <radialGradient id="_Radial15" cx="0" cy="0" r="1" gradientUnits="userSpaceOnUse" gradientTransform="matrix(1.182025,0,0,0.747221,56.298008,75.774593)"><stop offset="0" style="stop-color:rgb(129,35,47);stop-opacity:0.53"/><stop offset="0.35" style="stop-color:rgb(129,35,47);stop-opacity:0.07"/><stop offset="1" style="stop-color:rgb(129,35,47);stop-opacity:0"/></radialGradient>
        <radialGradient id="_Radial16" cx="0" cy="0" r="1" gradientUnits="userSpaceOnUse" gradientTransform="matrix(1.182025,0,0,0.747221,56.298008,75.774593)"><stop offset="0" style="stop-color:rgb(129,35,47);stop-opacity:1"/><stop offset="0.04" style="stop-color:rgb(129,35,47);stop-opacity:0.59"/><stop offset="0.1" style="stop-color:rgb(129,35,47);stop-opacity:0.53"/><stop offset="1" style="stop-color:rgb(129,35,47);stop-opacity:0"/></radialGradient>
        <radialGradient id="_Radial17" cx="0" cy="0" r="1" gradientUnits="userSpaceOnUse" gradientTransform="matrix(1.182025,0,0,0.747221,56.298008,75.774593)"><stop offset="0" style="stop-color:rgb(129,35,47);stop-opacity:1"/><stop offset="0.04" style="stop-color:rgb(129,35,47);stop-opacity:0.59"/><stop offset="0.1" style="stop-color:rgb(129,35,47);stop-opacity:0.53"/><stop offset="1" style="stop-color:rgb(129,35,47);stop-opacity:0"/></radialGradient>
        <radialGradient id="_Radial18" cx="0" cy="0" r="1" gradientUnits="userSpaceOnUse" gradientTransform="matrix(1.182025,0,0,0.747221,56.298008,75.774593)"><stop offset="0" style="stop-color:rgb(129,35,47);stop-opacity:0.53"/><stop offset="0.35" style="stop-color:rgb(129,35,47);stop-opacity:0.07"/><stop offset="1" style="stop-color:rgb(129,35,47);stop-opacity:0"/></radialGradient>
        <radialGradient id="_Radial19" cx="0" cy="0" r="1" gradientUnits="userSpaceOnUse" gradientTransform="matrix(1.182025,0,0,0.747221,56.298008,75.774593)"><stop offset="0" style="stop-color:rgb(129,35,47);stop-opacity:0.53"/><stop offset="0.35" style="stop-color:rgb(129,35,47);stop-opacity:0.07"/><stop offset="1" style="stop-color:rgb(129,35,47);stop-opacity:0"/></radialGradient>
        <radialGradient id="_Radial20" cx="0" cy="0" r="1" gradientUnits="userSpaceOnUse" gradientTransform="matrix(1.182025,0,0,0.747221,56.298008,75.774593)"><stop offset="0" style="stop-color:rgb(129,35,47);stop-opacity:1"/><stop offset="0.04" style="stop-color:rgb(129,35,47);stop-opacity:0.59"/><stop offset="0.1" style="stop-color:rgb(129,35,47);stop-opacity:0.53"/><stop offset="1" style="stop-color:rgb(129,35,47);stop-opacity:0"/></radialGradient>
        <radialGradient id="_Radial21" cx="0" cy="0" r="1" gradientUnits="userSpaceOnUse" gradientTransform="matrix(1.182025,0,0,0.747221,56.298008,75.774593)"><stop offset="0" style="stop-color:rgb(129,35,47);stop-opacity:1"/><stop offset="0.04" style="stop-color:rgb(129,35,47);stop-opacity:0.59"/><stop offset="0.1" style="stop-color:rgb(129,35,47);stop-opacity:0.53"/><stop offset="1" style="stop-color:rgb(129,35,47);stop-opacity:0"/></radialGradient>
    </defs>
</svg>
